<svg width="151" height="118" viewBox="0 0 151 118" fill="none" xmlns="http://www.w3.org/2000/svg">
<path d="M81.3204 0C63.6145 0 47.2604 7.46404 34.3517 21.2988C26.0771 30.1667 20.9046 41.1666 19.381 53.0742L0.525532 105.65C-0.459193 108.402 -0.044504 111.472 1.63881 113.865C3.32245 116.26 6.0713 117.686 8.99819 117.686H74.2072H77.1427L77.6115 117.709L77.7697 117.697C90.8595 116.849 102.769 110.982 111.467 101.66C127.115 84.8847 126.714 57.83 110.629 41.168C102.345 32.5866 91.536 27.5684 80.7814 27.5684H80.5939H80.5822C70.9197 27.6307 61.9548 31.7509 54.9415 39.1992C43.5861 51.2665 43.8389 71.7127 55.4572 83.6426C60.7168 89.0401 68.0215 92.2383 75.3146 92.2383C81.1517 92.2383 86.5817 90.0981 90.713 86.1152V86.1094C94.9125 82.056 96.8712 76.0198 96.2091 69.9082C95.5564 63.8848 92.4432 58.5807 87.5431 55.5645V55.5586H87.5372C86.1221 54.6898 84.4931 54.2285 82.8263 54.2285C79.7105 54.2285 76.794 55.8558 75.1622 58.5117C73.9115 60.5397 73.5139 62.9967 74.0665 65.3145C74.6193 67.6323 76.0828 69.6454 78.1095 70.8926C77.6581 70.6145 78.2335 71.107 78.3146 71.8477C78.4146 72.8248 77.828 73.5323 78.2208 73.1543C77.4623 73.885 76.6822 74.2148 75.3556 74.2148C72.8799 74.2148 69.739 72.4995 68.3537 71.0801C63.7364 66.3388 63.6147 56.2488 68.049 51.5391C71.8059 47.5474 76.08 45.5993 80.6642 45.5684C86.3719 45.5702 92.611 48.4351 97.674 53.6719C106.95 63.2815 107.204 79.8398 98.3068 89.3789C92.2263 95.8939 83.3565 99.6797 73.9904 99.6797C65.6841 99.6797 57.6939 96.7525 51.4962 91.4473C42.6682 83.894 37.5292 73.6739 36.9064 62.5664C36.3036 51.8248 40.0456 41.5838 47.5119 33.5801C57.0445 23.3624 68.6435 18.1172 81.379 18.1172C93.6303 18.1172 106.386 23.0679 118.281 32.7012H118.287C119.891 33.9978 121.885 34.6992 123.947 34.6992C125.881 34.6992 127.777 34.0712 129.326 32.918L146.629 20.0156C150.581 17.0619 151.409 11.3732 148.457 7.41797C146.756 5.14423 144.083 3.79688 141.238 3.79688C139.305 3.79688 137.41 4.42525 135.86 5.58398L123.865 14.5371C110.397 5.15403 95.7907 0.0030102 81.3263 0H81.3204ZM81.3204 6H81.3263C95.015 6.00285 109.109 10.9718 122.231 20.5898L124.024 21.9023L139.445 10.3945H139.451C139.988 9.99327 140.568 9.79688 141.238 9.79688C142.167 9.79688 143.085 10.2621 143.647 11.0098C144.648 12.3511 144.38 14.198 143.037 15.2051L125.74 28.1074C125.202 28.5082 124.618 28.6992 123.947 28.6992C123.268 28.6992 122.587 28.4566 122.061 28.0312V28.0371C109.314 17.7142 95.2458 12.1172 81.379 12.1172C66.9706 12.1172 53.6305 18.222 43.1232 29.4844C34.5874 38.6346 30.2249 50.5539 30.9181 62.9062C31.6333 75.6608 37.5999 87.4551 47.5939 96.0059C54.8962 102.257 64.2726 105.68 73.9904 105.68C84.9702 105.68 95.4201 101.264 102.69 93.4746C113.928 81.4257 113.572 61.4963 101.992 49.5C95.9815 43.2808 88.3339 39.5684 80.6583 39.5684H80.6466H80.6408C74.3214 39.6066 68.3658 42.4448 63.6779 47.4258C56.6221 54.92 56.8321 67.8548 64.0529 75.2695C66.5869 77.8695 70.6269 80.2148 75.3556 80.2148C77.977 80.2148 80.5235 79.262 82.381 77.4727C84.0476 75.869 84.5567 73.7533 84.2794 71.1973C84.0485 69.0879 83.3634 67.0813 81.256 65.7832C80.5527 65.3504 80.0938 64.7221 79.9025 63.9199C79.7112 63.1177 79.8365 62.3542 80.2658 61.6582H80.2716V61.6523C80.8367 60.7306 81.739 60.2285 82.8263 60.2285C83.3776 60.2285 83.917 60.3806 84.3966 60.6738C87.5966 62.6436 89.769 66.1661 90.2443 70.5527C90.722 74.9633 89.2453 79.1841 86.547 81.791C83.5024 84.7262 79.7255 86.2383 75.3146 86.2383C69.8216 86.2383 63.8823 83.6856 59.758 79.4531C50.5683 70.017 50.3761 52.8092 59.3126 43.3125C65.3554 36.8948 72.6097 33.62 80.6232 33.5684H80.7814C89.6528 33.5684 99.031 37.7933 106.311 45.334C120.166 59.6859 120.483 83.1939 107.078 97.5645C99.4057 105.787 88.9846 110.921 77.4767 111.691L77.2658 111.686H74.2072H8.99819C8.01907 111.686 7.10348 111.211 6.54311 110.414C5.98513 109.622 5.84532 108.59 6.17397 107.672L25.2345 54.5391L25.2755 54.2051C26.5802 43.3877 31.2108 33.4581 38.7404 25.3887C50.6716 12.6015 65.2824 6 81.3204 6ZM25.4923 71.5488L13.258 105.686H17.5236H49.6388L43.5275 100.418C36.6318 94.4691 31.516 87.2171 28.3927 79.0898L25.4923 71.5488ZM26.1486 87.5098C28.4904 91.9041 31.3711 95.9506 34.8029 99.6855H21.7833L26.1486 87.5098Z" fill="#00C896"/>
</svg>
