<svg width="140" height="107" viewBox="0 0 140 107" fill="none" xmlns="http://www.w3.org/2000/svg">
<path d="M20.5547 0L0 23.9883L69.9375 106.641L72.2344 103.934L139.875 23.9883L120.281 1.125C120.246 1.07812 120.211 1.04297 120.176 1.00782L119.309 0H20.5547ZM23.3203 6H34.5586C26.9297 10.6172 18.1875 18.457 14.0977 31.3594L7.875 24.0117L23.3203 6ZM70.0078 6C76.2891 5.84766 81.0234 6.78516 84.6562 8.22657C85.125 8.49609 85.3828 8.68359 85.9219 9.01172C87.6445 9.84375 88.8047 10.8398 90 11.8242C91.4414 12.9727 92.7539 14.1797 93.8672 15.4219C94.5937 16.4297 95.2969 17.4258 95.6953 18.2695C96.0352 18.9492 96.4805 19.6406 96.5742 20.2148C96.7148 20.6836 96.9844 21.4805 96.9844 21.4805C97.2188 22.9336 98.4727 24 99.9375 24H117.938C119.59 24 120.938 22.6523 120.938 21V11.1094L132 24.0117L119.52 38.7539C118.617 36.9023 117.328 35.2969 115.758 34.0078C112.605 31.4297 108.527 29.9414 103.957 28.9453C94.793 26.9531 83.4375 27 72.9375 27C63.1992 27 54.9961 26.9531 49.6992 25.9219C47.0625 25.418 45.1992 24.6445 44.2383 23.8594C43.2773 23.0859 42.9375 22.5 42.9375 21C42.9375 20.5312 43.4414 16.6875 46.9336 13.2656C50.4375 9.84375 57.082 6.31641 70.0078 6ZM92.8594 6H103.77C102.973 7.38281 102.797 7.62891 101.812 9.43359C101.121 10.6992 100.523 11.9297 99.8906 13.1836C99.7383 12.9727 99.6328 12.7266 99.4688 12.5156C99.1406 12.1055 98.6719 11.8359 98.3203 11.4375C97.875 10.8398 97.8047 10.3477 97.2656 9.75C96.082 8.4375 94.5938 7.17188 92.8594 6ZM110.672 6H114.938V18H104.156C104.953 16.3125 105.996 14.2734 107.062 12.3164C108.867 9.01172 110.062 7.03125 110.672 6ZM45.8438 7.08984C44.9414 7.76953 43.4766 8.26172 42.75 8.97657C37.9805 13.6406 36.9375 18.4688 36.9375 21C36.9375 24 38.2969 26.7891 40.4648 28.5469C42.6445 30.293 45.3984 31.207 48.5625 31.8281C54.9023 33.0469 63.1992 33 72.9375 33C83.4375 33 94.582 33.0469 102.668 34.8047C106.723 35.6836 109.957 37.0078 111.961 38.6484C113.707 40.0781 114.527 41.7422 114.75 44.0625C106.699 53.5078 108.105 51.5391 104.367 55.6172C103.934 54.2461 103.383 52.8984 102.328 51.8086C99.8203 49.2422 95.9414 48 90.9375 48C71.4375 48 55.7109 48 44.25 47.25C38.5312 46.8867 33.8672 46.3242 30.4336 45.5508C27 44.7656 24.8555 43.6758 24.0586 42.8789C21.3984 40.2187 21.2578 39.6797 19.2305 35.5781C23.8945 17.0742 38.8828 9.59766 45.8438 7.08984ZM31.4414 51.8438C34.957 52.4883 39.0586 52.9336 43.875 53.25C55.6641 54 71.4375 54 90.9375 54C94.9336 54 97.0547 55.0078 98.0156 56.0039C98.9883 56.9883 99.293 58.207 98.8711 60.1289C98.5781 61.5117 97.3008 63.1758 96.1055 64.793C95.7891 65.1094 93.7969 67.4062 93.6094 67.5938C91.6875 69.3516 89.5781 71.1211 86.8242 72.2227C83.4727 73.5586 79.4648 74.0391 75.8672 74.4023C74.25 74.5547 73.0547 74.8359 71.25 74.8711C70.5586 74.8828 70.0313 74.918 69.5742 74.918C69.293 73.3008 68.8008 71.2734 67.7461 69.1523C65.5078 64.6875 60.4336 60 51.9375 60C47.1094 60 43.7109 60.8086 41.4492 61.7227C41.0039 61.8984 40.6289 62.0859 40.2656 62.2852L31.4414 51.8438ZM51.9375 66C58.4414 66 60.8672 68.8125 62.3789 71.8477C62.9883 73.0547 62.7773 73.2656 63 74.3086C56.1211 73.5703 51.0938 72.4922 50.4844 72.293L45.2227 67.043C46.7812 66.5508 48.5508 66 51.9375 66ZM85.3594 79.125L69.9375 97.3594L54.5742 79.1953C57.5273 79.7109 61.1484 80.25 65.3438 80.5312C65.7773 80.8125 66.2813 80.9766 66.8086 81C66.8086 81 68.7539 80.9414 69.4453 80.9531C69.6445 80.9531 69.7383 81 69.9375 81C70.2305 81 70.3711 80.9297 70.6523 80.9297C72.4688 80.9297 73.8398 80.6367 77.0039 80.2969C80.2031 79.9688 82.957 79.5352 85.3594 79.125Z" fill="#00C896"/>
</svg>
