<svg width="132" height="132" viewBox="0 0 132 132" fill="none" xmlns="http://www.w3.org/2000/svg">
<path d="M66 0C29.7136 0 0 29.7136 0 66C0 102.286 29.7136 132 66 132C102.286 132 132 102.286 132 66C132 29.7136 102.286 0 66 0ZM66 6C99.0136 6 126 32.9864 126 66C126 99.0136 99.0136 126 66 126C32.9864 126 6 99.0136 6 66C6 32.9864 32.9864 6 66 6ZM66 18C56.5545 18 47.7478 20.7748 40.3301 25.4824L37.1719 27.4922L66 56.3203L94.8281 27.4922L91.6699 25.4824C84.2522 20.7748 75.4455 18 66 18ZM66 24C72.8828 24 79.1754 25.9919 84.9023 28.9336L66 47.8359L47.0977 28.9336C52.8246 25.9919 59.1172 24 66 24ZM27.498 37.1719L25.4883 40.3301C20.7735 47.749 18 56.5552 18 66C18 75.4455 20.7748 84.2522 25.4824 91.6699L27.4922 94.8281L56.3203 66L54.1992 63.8789L27.498 37.1719ZM104.508 37.1719L75.6797 66L77.8008 68.1211L104.508 94.8281L106.512 91.6699C111.223 84.2519 114 75.4455 114 66C114 56.5552 111.229 47.7487 106.518 40.3301L104.508 37.1719ZM28.9277 47.0918L47.8359 66L28.9336 84.9023C25.9919 79.1754 24 72.8828 24 66C24 59.1153 25.9829 52.8187 28.9277 47.0918ZM103.072 47.0918C106.016 52.819 108 59.1153 108 66C108 72.8828 106.01 79.1757 103.066 84.9023L84.1641 66L103.072 47.0918ZM66 75.6797L37.1719 104.508L40.3301 106.518C47.7478 111.225 56.5545 114 66 114C75.4455 114 84.2522 111.225 91.6699 106.518L94.8281 104.508L66 75.6797ZM66 84.1641L84.9023 103.066C79.1754 106.008 72.8828 108 66 108C59.1172 108 52.8246 106.008 47.0977 103.066L66 84.1641Z" fill="#00C896"/>
</svg>
