<svg width="102" height="139" viewBox="0 0 102 139" fill="none" xmlns="http://www.w3.org/2000/svg">
<path d="M50.9062 0.00702242C50.6016 -0.00469558 28.3711 -0.649228 10.6875 13.882C10.4648 14.0695 10.2773 14.2922 10.125 14.5383C7.13672 18.9211 5.90625 25.7648 4.875 32.5383C3.97266 38.468 3.49219 43.3781 3.1875 46.3195C2.70703 46.5539 2.09766 46.6008 1.6875 46.9758C0.785157 47.7961 0 49.1203 0 50.7258C0 50.7609 0 50.7844 0 50.8195L0.9375 77.0695C0.9375 77.1047 0.9375 77.1281 0.9375 77.1633C0.960939 78.5578 1.44141 79.6476 2.25 80.5383C2.83594 81.1828 3.89062 81.4758 4.875 81.757C5.12109 82.8469 6.23438 88.0031 7.875 94.7883C8.77734 98.5148 9.77344 102.37 10.6875 105.663C11.6016 108.956 12.3281 111.487 13.2188 113.257C16.5352 119.902 24.5977 131.245 33.0938 135.851C33.1289 135.851 33.1523 135.851 33.1875 135.851C35.4375 136.976 38.1797 137.468 41.25 137.82C44.3203 138.171 47.625 138.288 50.4375 138.288C53.543 138.288 57.3164 138.171 60.75 137.82C62.4727 137.644 64.1016 137.374 65.5312 137.07C66.8906 136.788 68.0156 136.542 69.1875 135.851C69.2227 135.827 69.2461 135.78 69.2812 135.757C69.3047 135.745 69.3516 135.769 69.375 135.757C73.4883 133.554 77.4023 129.581 80.9062 125.351C84.4336 121.085 87.3867 116.691 89.0625 113.351C89.0742 113.327 89.0508 113.28 89.0625 113.257C90.0469 111.382 90.6094 108.921 91.4062 105.663C92.2148 102.37 93.0938 98.5383 93.8438 94.7883C95.168 88.214 95.9414 83.55 96.1875 82.132C97.5117 82.0734 98.5195 81.593 99.375 80.8195C100.266 80.0109 101.027 78.7219 101.062 77.1633C101.062 77.1281 101.062 77.1047 101.062 77.0695L102 50.8195C102 50.7844 102 50.7609 102 50.7258C102 49.2726 101.414 48.1594 100.594 47.257C100.195 46.8117 99.4219 46.718 98.8125 46.4133C98.543 43.5539 98.1562 38.5266 97.3125 32.5383C96.3516 25.7414 95.2031 18.7805 91.7812 14.3508C91.6406 14.175 91.4883 14.0226 91.3125 13.882C73.6289 -0.649228 51.3984 -0.00469558 51.0938 0.00702242H50.9062ZM50.9062 6.00702C50.9648 6.00702 51.0352 6.00702 51.0938 6.00702C51.0938 6.00702 71.4375 5.64374 87.1875 18.382C88.8164 20.7492 90.5156 27.1125 91.4062 33.382C92.3203 39.8625 92.6602 46.0969 93 48.9445C93.1875 50.4562 94.4766 51.5812 96 51.5695L95.0625 76.2258H93.5625C91.9102 76.2258 90.5625 77.5734 90.5625 79.2258V79.7883C90.4922 80.2219 89.3789 86.3976 87.9375 93.5695C87.1875 97.2726 86.3672 101.105 85.5938 104.257C84.8203 107.409 83.918 110.175 83.7188 110.538C82.3945 113.198 79.5 117.546 76.2188 121.507C72.9375 125.468 69.1055 129.089 66.375 130.507C66.3047 130.566 66.2461 130.624 66.1875 130.695C66.2227 130.671 65.4258 131.023 64.3125 131.257C63.1992 131.491 61.7695 131.655 60.1875 131.82C57.0234 132.148 53.332 132.288 50.4375 132.288C47.8477 132.288 44.6836 132.136 41.9062 131.82C39.1289 131.503 36.5625 130.882 35.8125 130.507C29.9062 127.237 21.2227 115.87 18.5625 110.538C18.2461 109.905 17.3789 107.245 16.5 104.07C15.6211 100.894 14.5781 97.0734 13.6875 93.382C11.9766 86.3273 10.6289 80.3625 10.5 79.7883V79.2258C10.5 77.5734 9.15234 76.2258 7.5 76.2258H6.9375L6 51.5695C7.52344 51.5812 8.8125 50.4562 9 48.9445C9.31641 46.214 9.78516 39.8859 10.7812 33.382C11.7539 27.0305 13.5117 20.6672 15 18.2883C30.7266 5.69061 50.9062 6.00702 50.9062 6.00702ZM36.9375 13.2258C36.9375 13.2258 27.0352 16.2492 23.4375 18.9445C19.5352 21.9445 16.5 26.4445 16.5 26.4445L17.4375 61.507L13.5 73.2258C13.5 73.2258 14.4375 80.4211 15.9375 82.2258C17.4375 84.3234 28.5 102.57 28.5 102.57C28.5 102.57 30 109.847 28.5 116.445C27.9023 120.945 30 123.57 30 123.57L32.7188 126.57C33.3164 127.167 33.8789 127.507 34.7812 127.507C35.0859 127.507 35.4141 127.53 35.7188 127.226L41.0625 124.788H62.7188L68.0625 127.226C68.3672 127.226 68.6953 127.507 69 127.507C69.5977 127.507 70.4648 127.167 71.0625 126.57L73.7812 123.57C73.7812 123.57 76.1836 120.64 75.2812 116.445C73.7812 109.847 75.2812 102.57 75.2812 102.57C75.2812 102.57 84.9375 84.3234 86.4375 82.2258C87.9375 80.1281 88.8398 73.1672 89.4375 72.5695L85.5 60.9445L86.4375 26.4445C86.4375 26.4445 82.7812 21.9445 79.7812 18.9445C75.5859 15.6398 65.7188 13.2258 65.7188 13.2258L62.4375 39.007C62.4375 39.007 61.5 44.7023 61.5 45.007C61.5 45.6047 57.9375 46.507 57.9375 46.507H45C45 46.507 41.4375 45.6047 41.4375 45.007C41.4375 44.4094 40.5 39.007 40.5 39.007L36.9375 13.2258ZM70.7812 21.007C72.8789 21.6047 74.3789 22.4719 75.2812 23.0695C76.7812 24.5695 78.5859 27.0305 79.7812 28.2258L78.9375 60.5695C78.9375 61.1672 78.9141 62.1281 79.2188 62.7258L81.5625 69.6633L81 69.2883C81 69.2883 80.4023 68.6906 79.5 69.2883C76.5 70.1906 68.1211 74.1281 59.7188 74.7258C57.6211 75.6281 59.0625 76.507 59.0625 76.507C59.0625 76.507 60.9023 79.4836 61.5 79.7883C62.0977 80.6906 63.2812 80.7258 63.2812 80.7258L72.9375 80.0695C72.9375 80.0695 74.7422 80.1281 75.9375 79.2258C76.9453 78.8156 79.3945 77.2453 81.75 75.757C81.4688 76.964 81.1992 78.3586 81 78.9445C79.1953 81.3469 73.1602 93.0422 69.5625 99.9445C69.2578 100.542 69.3047 100.847 69 101.445C68.6953 102.347 67.1953 110.07 69 117.57C69.3047 118.472 68.7188 119.421 68.7188 119.726L67.7812 120.945L64.7812 119.726C63.8789 119.421 63.3398 119.07 62.4375 119.07H40.7812C39.8789 119.07 39.3398 119.421 38.4375 119.726L35.4375 120.945L34.5 120.007C34.1953 119.702 33.9141 118.788 34.2188 117.288C35.7188 109.788 34.2188 102.347 34.2188 101.445C34.2188 100.847 33.8672 100.167 33.5625 99.5695C31.1602 95.3742 22.8047 81.6398 21 78.9445C20.8242 78.4289 20.6016 77.4094 20.3438 76.3195C22.582 77.7258 24.832 79.1203 25.7812 79.507C26.9766 80.4094 28.7812 80.4445 28.7812 80.4445L38.4375 81.007C38.4375 81.007 39.9023 80.9836 40.5 79.7883C41.0977 79.4836 42.9375 76.507 42.9375 76.507C42.9375 76.507 44.4023 75.6047 42 75.007C33.5977 74.4094 25.2188 70.4719 22.2188 69.5695C21.9023 69.3586 21.6094 69.3703 21.375 69.382L23.4375 63.5695C23.7422 62.9719 23.7188 62.1047 23.7188 61.507L22.7812 28.507C23.9766 27.007 25.4766 25.2023 27.2812 24.007C28.1836 23.4094 30.0352 22.4719 32.4375 21.5695L34.7812 40.2258V40.507C35.0859 42.6047 35.7188 45.3469 35.7188 45.9445C36.0234 50.7492 40.8047 51.8859 43.5 52.7883C44.0977 53.093 44.6836 53.0695 45.2812 53.0695H58.2188C58.8164 53.0695 59.4023 53.093 60 52.7883C62.6953 51.8859 67.4766 50.7492 67.7812 45.9445C67.7812 45.3469 68.4141 42.6047 68.7188 40.507V40.2258L70.7812 21.007Z" fill="#00C896"/>
</svg>
