<svg width="150" height="96" viewBox="0 0 150 96" fill="none" xmlns="http://www.w3.org/2000/svg">
<path d="M75 0C54.5462 0 36.0435 5.11463 22.4473 13.6172C8.85101 22.1197 0 34.2608 0 48C0 61.7392 8.85101 73.8802 22.4473 82.3828C36.0435 90.8854 54.5462 96 75 96C95.4538 96 113.956 90.8854 127.553 82.3828C141.149 73.8802 150 61.7392 150 48C150 34.3951 141.15 22.2733 127.559 13.7344C113.967 5.19541 95.4613 0 75 0ZM75 6C94.4387 6 111.932 11.0034 124.365 18.8145C136.798 26.6255 144 37.0049 144 48C144 59.1608 136.8 69.5186 124.371 77.291C111.942 85.0635 94.4462 90 75 90C55.5538 90 38.0576 85.0635 25.6289 77.291C13.2002 69.5186 6 59.1608 6 48C6 36.8392 13.2002 26.4814 25.6289 18.709C38.0576 10.9365 55.5538 6 75 6ZM66.2988 16.5L64.5 34.2012C60.3 51.9012 36 37.8 51 18C29.7 22.8 15.3 34.8023 15 47.4023C15.3 53.1023 18.6 59.1012 24 64.2012C27.9 67.8012 33 72.6 39 75C29.1 60.6 48.3 53.4 57 69C60.3 56.4 71.7 65.1 75 81C78.3 65.1 89.7 56.4 93 69C101.7 53.4 120.9 60.6 111 75C117 72.6 122.1 67.8 126 64.5C131.4 59.4 134.7 53.4012 135 47.7012C134.7 35.1012 120.3 23.1 99 18C114 37.8 89.7 51.6012 85.5 34.2012L83.7012 16.5L79.5 21H75H70.5L66.2988 16.5Z" fill="#00C896"/>
</svg>
