<svg width="102" height="145" viewBox="0 0 102 145" fill="none" xmlns="http://www.w3.org/2000/svg">
<path d="M95.4023 69.3047C87.5977 64.1953 81.5977 60.9023 75 54C73.8047 52.8047 72.3047 51.3047 71.6953 51.3047C71.0977 50.6953 69.9023 51.3047 69 51.3047C65.6953 51.3047 63.3047 49.8047 60.5977 48.5977C63.5977 48.3047 66.9023 48 69.3047 48C80.0977 48 87.9023 50.6953 93.3047 54C95.0977 52.1953 97.8047 50.6953 99.3047 48.3047C97.5 46.1953 96.5977 41.0977 96 38.4023C95.4023 36.3047 95.4023 34.5 94.8047 33.3047C91.5 21.3047 87.5977 12 81 3C87.5977 15.9023 93.5977 29.0977 93 48C87.5977 46.1953 70.8047 45 69 45C66.3047 45 62.6953 45.9023 60 45.9023C61.1953 44.0977 61.8047 41.4023 63.9023 40.8047C65.0977 40.1953 66.5977 40.8047 68.4023 40.8047C73.8047 40.8047 79.8047 40.1953 81.3047 42C82.5 40.1953 85.1953 39.5977 85.8047 38.0977C85.8047 37.5 85.1953 34.8047 84.5977 33C84 31.1953 83.4023 29.0977 82.8047 27.9023C80.6953 18.9023 76.5 9 73.1953 1.80469L72 0C75.3047 11.0977 78 21.9023 78 36C72 36 69.5977 36 63 36C60.9023 37.8047 58.8047 40.8047 57 42C57.5977 39.3047 55.5 37.5 54 36.3047C54.5977 37.5 56.0977 40.8047 54.9023 42.5977C53.6953 42.5977 54.3047 40.8047 53.0977 40.8047C52.5 41.4023 51.5977 41.6953 51 41.6953C50.0977 41.6953 49.5 41.6953 48.9023 40.8047C47.6953 40.8047 48.3047 42.5977 47.0977 42.5977C45.9023 40.8047 47.4023 37.5 48 36.3047C46.1953 37.5 44.4023 39.3047 45 42C43.1953 40.8047 41.4023 37.8047 39 36C32.4023 36 30 36 24 36C24 21.9023 26.6953 11.0977 30 0L28.8047 1.80469C25.5 9 21.5977 19.1953 19.1953 27.9023C18.5977 29.0977 18 31.1953 17.4023 33C16.8047 34.8047 16.1953 37.5 16.1953 38.0977C16.8047 39.9023 19.5 40.5 20.6953 42C21.9023 40.1953 27.9023 40.8047 33.5977 40.8047C35.4023 40.8047 36.9023 40.1953 38.0977 40.8047C40.1953 41.4023 40.8047 44.0977 42 45.9023C39.3047 45.9023 35.6953 45 33 45C31.1953 45 14.4023 46.1953 9 48C8.40234 29.0977 14.4023 15.9023 21 3C14.4023 12 10.5 21.3047 7.19532 33.5977C6.59766 34.8047 6.59766 36.3047 6 38.6953C5.40234 41.4023 4.5 46.5 2.69532 48.5977C4.5 50.6953 7.19532 52.5 8.69532 54.3047C14.0977 51 21.9023 48.3047 32.6953 48.3047C34.8047 48.3047 38.0977 48.3047 41.4023 48.9023C38.6953 50.0977 36.3047 51.5977 33 51.5977C31.8047 51.5977 30.9023 51 30.3047 51.5977C29.6953 51.5977 28.1953 53.4023 27 54.3047C20.4023 60.9023 14.4023 64.5 6.59766 69.5977C4.5 71.4023 2.69531 72.9023 0 70.8047C0 93 5.09766 109.5 12.3047 124.5C13.1953 125.695 15 129 15 129C9.59766 116.098 6 101.098 6 83.0977C6 81.3047 5.40234 78.5977 6 77.4023C6.59766 75.3047 9.90234 72.3047 12 70.8047C18 65.0977 22.5 63 29.0977 57.9023C30.3047 56.6953 31.1953 55.8047 32.4023 55.1953C33.5977 54.5977 39 53.6953 41.4023 52.5C38.6953 55.1953 35.4023 60.3047 32.0977 63C31.5 63.5977 30.9023 63 30 63C30 90 31.1953 112.805 38.4023 131.695C40.1953 136.195 42.3047 140.695 45 144C35.0977 126 36 96.9023 36 69C33.9023 67.1953 35.4023 66.3047 37.1953 64.1953C39.3047 62.0977 42 56.4023 45 55.1953C45 56.4023 44.4023 57.3047 43.8047 58.1953C43.1953 59.0977 42 60.5977 42 61.1953C41.4023 63.3047 42.5977 67.8047 43.1953 70.1953C45 78 47.0977 87 49.8047 93C51 93 50.4023 90.5977 51 90C51.5977 90.5977 51 93 52.1953 93C54.9023 87 57.3047 78 58.8047 70.1953C59.4023 68.0977 60.5977 63.5977 60 61.1953C60 60.5977 58.8047 59.4023 58.1953 58.5C57.5977 57.5977 57 56.4023 57 55.5C59.6953 56.6953 62.4023 62.0977 64.8047 64.5C66.5977 66.5977 68.0977 67.8047 66 69.3047C66 97.1953 66.9023 126.305 57 144.305C59.6953 141 62.0977 136.5 63.5977 132C70.8047 112.805 72 90 72 63C70.8047 63 70.1953 63.5977 69.9023 63C66.5977 60.3047 63.3047 55.1953 60.5977 52.5C63 53.6953 68.4023 54.5977 69.5977 55.1953C70.8047 55.8047 71.6953 57 72.9023 57.9023C79.5 63 83.6953 65.4023 90 70.8047C92.0977 72.5977 95.4023 75.3047 96 77.4023C96.5977 78.5977 96 81.3047 96 83.0977C96 101.098 92.6953 116.098 87 129C87 129 88.8047 125.695 89.6953 123.902C96.9023 108.902 102 92.4023 102 70.1953C99.3047 72.5977 97.5 70.8047 95.4023 69.3047Z" fill="#00C896"/>
</svg>
