<svg width="138" height="138" viewBox="0 0 138 138" fill="none" xmlns="http://www.w3.org/2000/svg">
<path d="M69 0C30.9279 0 0 30.9279 0 69C0 107.072 30.9279 138 69 138C107.072 138 138 107.072 138 69C138 30.9279 107.072 0 69 0ZM69 6C82.6105 6 95.1698 10.3461 105.463 17.666C106.086 18.8062 112.649 31.1041 113.766 46.916C114.445 56.5371 113.15 67.1683 107.109 77.2383C107.662 74.6788 107.961 72.0279 107.982 69.3105C107.994 69.2074 108 69.1038 108 69C108 37.3091 91.3346 20.8911 74.9414 13.1484C68.4243 10.0703 61.9731 8.29279 56.5078 7.23633C60.5446 6.42637 64.7225 6 69 6ZM42.8145 11.7363C44.027 11.7323 58.077 11.8184 72.3809 18.5742C81.4962 22.8795 90.4892 29.6888 96.1348 41.0508C93.9645 38.9432 91.5443 37.1045 88.9336 35.543L88.9277 35.5371C88.8101 35.4357 88.6847 35.3437 88.5527 35.2617C74.6328 26.5251 61.997 23.7097 50.9941 24.4219C39.9913 25.1341 30.621 29.3719 23.2148 34.7578C17.7331 38.7443 13.2502 43.3182 9.76172 47.502C15.5272 31.5905 27.5363 18.725 42.8145 11.7363ZM115.74 26.8359C125.817 38.0017 132 52.7521 132 69C132 71.0033 131.901 72.9804 131.719 74.9355C131.409 75.5566 124.692 88.875 111.814 98.4609C102.781 105.185 91.0717 110.103 76.1016 107.326C80.3444 106.541 84.3454 105.073 87.9902 103.031C88.155 102.967 88.3139 102.889 88.4648 102.797C89.2784 102.323 90.0099 101.819 90.7852 101.332H90.791C115.461 85.8348 120.994 64.0601 119.754 46.4941C119.224 38.9808 117.533 32.2464 115.74 26.8359ZM55.0137 30.082C57.106 30.1252 59.286 30.364 61.5176 30.7324C57.3983 31.5365 53.5167 32.9987 49.9688 34.9922C49.8166 35.0523 49.6696 35.1249 49.5293 35.209C48.7234 35.6792 47.9952 36.1741 47.2266 36.6562C47.2207 36.6602 47.2148 36.664 47.209 36.668C22.2656 52.3245 16.7219 74.1183 18.0352 91.6582C18.5852 99.004 20.2627 105.602 22.0547 110.936C12.0996 99.7967 6 85.1373 6 69C6 67.0006 6.09966 65.0276 6.28125 63.0762C6.65493 62.3601 13.6596 49.1292 26.7422 39.6152C34.3043 34.1159 43.6419 29.8474 55.0137 30.082ZM69 36C74.7065 36 80.0678 37.4421 84.7441 39.9785C84.8024 40.0144 84.8558 40.0479 84.9141 40.084C95.1055 45.6924 102 56.5173 102 69C102 80.3046 96.3448 90.2494 87.709 96.1934C87.1802 96.5253 86.6699 96.8624 86.1211 97.1895C81.1287 100.223 75.2833 102 69 102C63.3748 102 58.0899 100.59 53.4609 98.1211C53.4231 98.0979 53.3875 98.0799 53.3496 98.0566C53.2084 97.9621 53.0594 97.8798 52.9043 97.8105C42.8141 92.1734 36 81.4074 36 69C36 57.7211 41.6299 47.7963 50.2324 41.8477C50.8709 41.4464 51.4867 41.041 52.1543 40.6465C57.0866 37.7153 62.8316 36 69 36ZM64.4941 37.8105C64.2031 37.7775 63.9582 37.8345 63.9492 37.9395L63.5449 41.543C63.5389 41.603 63.6124 41.6649 63.7324 41.7129L63.6973 42.0293C63.5713 42.0503 63.4865 42.0923 63.4805 42.1523L63.3105 43.6582H63.293C63.023 43.6852 62.7714 43.7812 62.6484 44.0332C62.4864 44.3602 62.1387 45.0406 62.1387 45.5566C62.1387 47.1376 62.3088 48.8027 63.6738 48.8027C64.2138 48.8027 64.615 48.4295 64.834 48.2285C64.834 48.5855 64.8807 49.4564 64.7637 49.8164C64.4637 50.2634 63.9433 50.4028 63.4453 50.3848C62.1763 50.3458 62.0727 49.4913 62.1387 48.8613C62.1387 48.8613 61.8504 48.906 61.7754 49.377C61.4394 51.498 60.5156 56.5611 60.5156 59.0391C60.5156 60.6051 61.9332 61.6172 62.3262 61.6172C62.8752 61.6172 63.1465 61.459 63.1465 61.459L61.2949 96.7734C61.2949 96.7734 61.8795 98.6777 62.9355 98.6777C64.4535 98.6777 65.5078 97.002 65.5078 97.002C65.5078 97.002 68.5403 75.3431 68.7773 73.0781H68.8301C68.7251 77.6021 70.1604 79.9701 69.7734 81.6621C69.3864 83.3541 69.954 94.2261 70.377 97.0371C70.377 97.0371 73.2734 97.4632 74.0684 97.5352C76.5734 97.7662 78.4043 97.36 78.4043 96.832C78.4013 96.07 76.4102 96.3321 74.4902 94.4121L74.4141 60.6973C74.4141 60.6973 75.4117 60.2865 76.0957 59.8125C76.5127 59.5245 76.5682 58.7821 76.5352 58.1191C76.5202 57.8191 75.4853 50.9631 75.4043 50.4141C75.3083 49.7841 74.9867 49.3267 73.9277 48.8438C73.4417 48.6217 70.7461 47.4668 70.7461 47.4668L70.5879 46.7637L70.0254 46.7051L70.0078 45.9961C70.6768 45.3991 70.9102 43.9102 70.9102 43.9102C71.2132 43.5952 71.3738 43.0934 71.4668 42.5684C71.5208 42.2504 71.3145 42.1758 71.3145 42.1758C71.4855 40.8678 71.5984 38.7997 69.7324 38.5957C69.7324 38.5957 69.6326 38.3749 69.5156 38.2969C65.6366 37.7899 65.9683 40.7626 66.0703 42.0586C66.0703 42.0586 65.8301 42.1788 65.8301 42.2988C65.8301 42.6558 65.8307 43.6118 66.4277 43.9688L66.791 46.2363C67.769 46.7193 67.8633 47.0684 67.8633 47.0684L67.5645 47.1973L68.3555 48.7734L69.6328 47.7949C69.6328 47.7949 70.2208 48.1104 70.7578 48.2754C71.3548 50.6634 70.9901 54.6172 70.8281 56.1562L70.7988 56.1621C70.4568 53.4141 67.2374 46.9135 66.3164 46.6465C66.3164 46.6465 65.7128 46.9081 65.0918 47.2441C65.5088 45.6901 65.1993 45.3988 64.9863 45.1348C64.8363 44.9518 64.6403 44.6811 64.2773 44.5371L64.2832 44.4961L64.3008 44.3848C64.3008 44.3848 64.5509 44.3353 64.6289 44.3203C65.1689 44.2123 65.0996 43.5552 64.6406 43.5762C64.5116 43.5822 64.3978 43.5879 64.3828 43.5879L64.5293 42.2695C64.5353 42.2095 64.4618 42.1476 64.3418 42.0996L64.377 41.7832C64.503 41.7622 64.5877 41.7202 64.5938 41.6602L65.0039 38.0566C65.0159 37.9516 64.7821 37.8435 64.4941 37.8105ZM62.8184 48.9961C62.7254 49.0531 62.7028 49.2125 62.7598 49.3535C62.8168 49.4915 62.9363 49.5629 63.0293 49.5059C63.1223 49.4489 63.1449 49.2894 63.0879 49.1484C63.0309 49.0074 62.9114 48.9391 62.8184 48.9961ZM72.1582 51.5742C72.2782 51.5742 73.8281 51.7995 73.8281 52.5645C73.5011 52.5405 72.5632 52.357 72.1582 52.207V51.5742ZM66.8262 58.3359C67.2072 58.9899 67.5693 59.9427 67.2363 61.0137L66.3516 61.1426C66.2406 61.0886 66.1332 60.967 66.0762 60.832C66.5652 60.109 66.0413 59.1018 65.7773 58.4238L66.8262 58.3359ZM66.7148 60.3164C66.6188 60.3284 66.5392 60.4479 66.5332 60.5859C66.5272 60.7239 66.6013 60.8265 66.6973 60.8145C66.7933 60.8025 66.8788 60.6829 66.8848 60.5449C66.8908 60.4069 66.8108 60.3044 66.7148 60.3164ZM30.9844 60.3984C30.3787 63.0751 30.0393 65.8491 30.0176 68.7012C30.0068 68.8004 30.0009 68.9002 30 69C30 100.691 46.6654 117.109 63.0586 124.852C69.5757 127.93 76.0269 129.707 81.4922 130.764C77.4554 131.574 73.2775 132 69 132C55.3836 132 42.821 127.648 32.5254 120.322C31.913 119.231 25.1995 106.993 24.0176 91.207C23.2876 81.458 24.6263 70.6476 30.9844 60.3984ZM128.004 91.1191C122.154 106.744 110.264 119.367 95.1855 126.264C93.973 126.268 79.923 126.182 65.6191 119.426C56.5038 115.121 47.5108 108.311 41.8652 96.9492C44.274 99.2884 46.9769 101.318 49.9219 102.979C50.0158 103.047 50.1136 103.109 50.2148 103.166C78.3346 120.416 100.84 114.11 115.4 103.271C120.519 99.4611 124.686 95.1399 128.004 91.1191Z" fill="#00C896"/>
</svg>
