<svg width="138" height="150" viewBox="0 0 138 150" fill="none" xmlns="http://www.w3.org/2000/svg">
<path d="M117.264 0L51 66H72L45 99H60L27.2637 150L93 84H75L102 51H84L117.264 0ZM69 6C30.954 6 0 36.954 0 75C0 99.114 12.4385 120.361 31.2305 132.703L34.4824 127.646C17.3524 116.372 6 96.996 6 75C6 40.26 34.26 12 69 12C77.199 12 85.018 13.6204 92.209 16.4824L96.8262 11.8828C88.3092 8.11181 78.9 6 69 6ZM111.117 20.4023L107.807 25.4766C122.507 37.0206 132 54.903 132 75C132 109.74 103.74 138 69 138C62.55 138 56.3229 137.014 50.4609 135.205L45.7324 139.951C53.0044 142.564 60.84 144 69 144C107.046 144 138 113.046 138 75C138 52.803 127.452 33.0323 111.117 20.4023Z" fill="#00C896"/>
</svg>
