<svg width="127" height="127" viewBox="0 0 127 127" fill="none" xmlns="http://www.w3.org/2000/svg">
<path d="M60.498 0L57.1289 4.24805C56.4331 5.18189 48.1934 15.8203 39.9902 36.0352C28.894 38.8001 19.2627 43.4143 12.1582 49.5117C4.79737 55.8289 0 63.9771 0 73.0957C0 86.7737 10.3455 97.5586 24.4629 104.59C23.8953 111.713 23.4375 119.128 23.4375 127.002H32.8125C32.8125 120.612 34.8816 114.661 38.0859 109.424C45.8862 111.566 54.1809 112.939 63.2812 112.939C73.7549 112.939 83.5693 111.511 92.2852 108.691C93.1824 111.53 93.75 114.478 93.75 117.627H103.125C103.125 113.031 102.942 108.6 102.686 104.297C104.169 103.546 105.688 102.777 107.08 101.953C118.579 95.0317 126.562 84.8328 126.562 73.0957C126.562 63.9771 121.765 55.8289 114.404 49.5117C107.117 43.2495 97.1558 38.6169 85.6934 35.8887C75.6775 15.0513 64.8926 4.39453 64.1602 3.66211L60.498 0ZM61.377 14.502C68.8843 23.877 85.7483 48.7427 91.8457 89.0625C84.8145 80.6213 75.9338 75.4395 70.3125 75.4395C62.8052 75.4395 45.9961 84.375 34.2773 98.4375C39.4409 53.4302 54.8218 25.2869 61.377 14.502ZM90.3809 46.875C97.7051 49.3469 103.894 52.6794 108.398 56.543C114.276 61.5967 117.188 67.1997 117.188 73.0957C117.188 80.5664 111.951 88.0554 102.246 93.8965C102.1 93.988 101.953 94.0979 101.807 94.1895C99.7559 75.4028 95.398 59.7107 90.3809 46.875ZM35.7422 47.0215C35.7788 47.0032 35.8521 47.0398 35.8887 47.0215C31.4941 59.967 27.5574 75.8606 25.3418 94.6289C15.1245 88.7695 9.375 81.134 9.375 73.0957C9.375 67.1997 12.2864 61.5967 18.1641 56.543C22.5769 52.7527 28.6011 49.4751 35.7422 47.0215ZM70.3125 84.8145C73.3337 84.8145 82.2693 90.6921 88.1836 99.9023C80.7495 102.173 72.3083 103.564 63.2812 103.564C56.488 103.564 50.1892 102.85 44.2383 101.514C53.8696 91.095 66.6504 84.8145 70.3125 84.8145Z" fill="#00C896"/>
</svg>
