<svg width="132" height="138" viewBox="0 0 132 138" fill="none" xmlns="http://www.w3.org/2000/svg">
<path d="M63.0002 0C59.719 0 57.0002 2.71875 57.0002 6V6.14062C40.9924 7.47656 27.8674 19.4062 24.7268 34.875C24.5159 35.707 24.3752 36.6094 24.2698 37.582C24.2229 37.6992 24.0706 38.0742 24.012 38.7539C23.8127 41.1797 23.2034 44.4375 22.4534 47.7188C22.219 48.7266 21.9846 49.7344 21.7385 50.7188V50.7422C21.7151 50.8242 21.6799 50.9414 21.6448 51.1055C20.7893 54.4453 19.8987 57.5742 19.219 59.8477C18.0002 62.8945 16.6643 66.1172 15.3284 69.3281C12.387 76.3711 8.61352 84.3867 5.55493 91.7695C2.48461 99.1289 0.0119552 105.656 0.000237193 110.965C-0.0114808 112.16 0.398676 115.664 3.98461 119.309C6.29321 121.652 9.82055 123.422 14.6487 125.156C19.0666 126.762 24.7854 128.145 31.1135 129.293C31.9573 130.852 33.1291 132.211 34.6643 133.137C36.8674 134.461 39.5627 135.363 42.7034 136.066C48.9963 137.461 57.094 138 66.0002 138C74.8948 138 83.0042 137.496 89.2971 136.113C92.4377 135.41 95.1448 134.52 97.3596 133.184C98.8948 132.246 100.067 130.863 100.91 129.293C107.227 128.145 112.946 126.762 117.364 125.156C122.168 123.422 125.707 121.652 128.016 119.309C131.602 115.664 132.012 112.16 132 110.965C131.989 105.656 129.516 99.1406 126.457 91.7695C123.387 84.3867 119.614 76.3711 116.684 69.3281C115.336 66.1055 114 62.8711 112.77 59.8125C112.723 59.6602 112.688 59.5195 112.641 59.3906V59.3555C112.653 59.4258 112.641 59.3789 112.606 59.2734V59.2617C112.5 58.875 112.371 58.4414 112.231 57.9844C112.196 57.8555 112.16 57.7266 112.125 57.5742L112.114 57.5625C111.996 57.1641 111.879 56.7539 111.762 56.3438V56.332C111.727 56.2031 111.692 56.0977 111.668 56.0039V55.9922L111.657 55.9805C111.516 55.4648 111.375 54.9258 111.223 54.3633L111.211 54.3281C111.176 54.1875 111.141 54.0703 111.117 53.9766L111.106 53.9648V53.9531C110.989 53.4961 110.86 53.0273 110.731 52.5469C110.684 52.3711 110.649 52.2188 110.625 52.0898L110.614 52.0664V52.043C110.449 51.457 110.297 50.8477 110.157 50.25L110.121 50.1445V50.1211C109.981 49.5703 109.852 48.9961 109.711 48.4219L109.699 48.4102C109.664 48.2344 109.629 48.0703 109.594 47.9297V47.8945C108.821 44.5547 108.199 41.2266 107.989 38.7539C107.93 38.0625 107.778 37.6875 107.731 37.582C107.625 36.6094 107.485 35.6953 107.274 34.875C104.133 19.3945 91.0081 7.47656 75.0002 6.14062V6C75.0002 2.71875 72.2815 0 69.0002 0H63.0002ZM63.0002 6H69.0002V48H63.0002V6ZM57.0002 12.1641V46.7812C54.2581 45.9375 50.2151 45.0117 45.0002 45H42.0002C37.3596 45 32.4963 46.3477 28.3127 49.0312C29.0862 45.6094 29.7424 42.1992 29.9885 39.2461C29.9768 39.375 29.9534 39.4922 30.0823 39L30.1409 38.7656L30.176 38.5312C30.2698 37.6055 30.3987 36.8555 30.5627 36.2461L30.5745 36.1758L30.5979 36.0938C33.1643 23.3672 43.8635 13.4883 57.0002 12.1641ZM75.0002 12.1641C88.137 13.4883 98.8362 23.3672 101.403 36.0938L101.426 36.1758L101.438 36.2461C101.602 36.8555 101.731 37.6172 101.824 38.5312L101.86 38.7656L101.918 39C102.047 39.4922 102.024 39.375 102.012 39.2461C102.258 42.1992 102.914 45.6211 103.699 49.043C99.5042 46.3477 94.6409 45 90.0002 45H87.0002C81.7854 45.0117 77.7424 45.9375 75.0002 46.7812V12.1641ZM50.8596 17.9883C50.5901 18 50.3206 18.0586 50.0627 18.1406C50.0627 18.1406 40.0549 21.4102 36.1877 31.9688C35.6135 33.5156 36.4104 35.25 37.969 35.8125C39.5159 36.3867 41.2502 35.5898 41.8127 34.0312C44.6956 26.2148 51.9377 23.8594 51.9377 23.8594C53.3323 23.4258 54.2112 22.043 54.0237 20.6016C53.8362 19.1484 52.6291 18.0469 51.1643 17.9883C51.0706 17.9883 50.9651 17.9883 50.8596 17.9883ZM42.0002 51H45.0002C52.9338 51 58.7229 53.7188 58.7229 53.7188L59.3323 54H72.6682L73.2776 53.7188C73.2776 53.7188 79.0667 51 87.0002 51H90.0002C96.6799 51 104.004 54.5039 107.18 61.9922C108.434 65.1211 109.793 68.3906 111.141 71.6367C114.153 78.8789 117.926 86.8828 120.914 94.0781C123.903 101.262 126 107.836 126 111V111.059C126 110.801 126.176 112.629 123.75 115.102H123.739C122.719 116.133 119.696 117.937 115.313 119.52C111.469 120.914 106.512 122.215 100.782 123.293C100.336 122.637 99.6799 121.5 98.8479 119.027C98.426 117.75 97.2073 116.906 95.8596 116.965C94.8987 117.012 94.0315 117.492 93.4924 118.289C92.9651 119.074 92.8362 120.07 93.1526 120.973C94.1018 123.727 95.051 125.414 95.7776 126.551C95.6135 126.961 95.2737 127.418 94.2424 128.051C92.9299 128.848 90.762 129.645 88.0081 130.254C82.4885 131.461 74.6604 132 66.0002 132C57.3518 132 49.5237 131.437 44.0159 130.207C41.2502 129.598 39.0823 128.789 37.7698 128.004C37.0198 127.547 36.6448 127.184 36.3987 126.867C38.0041 125.227 40.4416 122.285 41.8596 117.926C42.1643 117 42.012 115.992 41.4495 115.207C40.887 114.422 39.9729 113.953 39.0002 113.953C37.6877 113.965 36.5276 114.82 36.1409 116.074C34.7932 120.281 32.2268 122.707 31.4885 123.34C25.6409 122.262 20.5901 120.926 16.6877 119.52C12.3049 117.937 9.26977 116.133 8.25024 115.102C5.82446 112.629 6.00024 110.801 6.00024 111.059V111C6.00024 107.836 8.09789 101.262 11.0862 94.0781C14.0745 86.8828 17.8479 78.8789 20.8596 71.6367C22.2307 68.3789 23.5901 65.0859 24.844 61.9336C28.0432 54.4922 35.3323 51 42.0002 51ZM46.0784 54C40.5588 54 36.2463 56.7891 33.6682 60.3633C31.2073 63.7734 30.1291 67.8164 30.0354 71.4844C30.0354 71.4961 30.0354 71.4961 30.0354 71.4961C30.012 71.6602 30.0002 71.8359 30.0002 72C30.0002 75.9961 31.594 81.75 33.1174 87.082C34.6409 92.4023 36.1526 96.9492 36.1526 96.9492C36.6799 98.5195 38.3791 99.375 39.9495 98.8477C41.5198 98.3203 42.3752 96.6211 41.8479 95.0508C41.8479 95.0508 40.3596 90.5977 38.8831 85.418C38.3791 83.6719 37.9573 81.8555 37.5354 80.0625C37.7932 80.1328 38.0627 80.25 38.3088 80.3086C41.5549 81.0703 44.3557 81.0117 44.7893 81C44.8596 81 44.9299 81 45.0002 81H45.094H57.0002V86.0391L42.5627 106.254C41.9065 107.168 41.8127 108.375 42.3284 109.371C42.844 110.379 43.8752 111 45.0002 111H87.0002C88.1252 111 89.1565 110.379 89.6721 109.371C90.1877 108.375 90.094 107.168 89.4377 106.254L75.0002 86.0391V81H87.0002C87.0002 81 87.0823 80.9883 87.094 81C87.3752 81 90.3518 81.0938 93.6917 80.3086C93.9377 80.25 94.2073 80.1328 94.4651 80.0625C94.0432 81.8555 93.6213 83.6719 93.1174 85.418C91.6409 90.5977 90.1526 95.0508 90.1526 95.0508C89.6252 96.6211 90.4807 98.3203 92.051 98.8477C93.6213 99.375 95.3206 98.5195 95.8479 96.9492C95.8479 96.9492 97.3596 92.4023 98.8831 87.082C100.407 81.75 102 75.9961 102 72C102 71.8477 101.989 71.6953 101.965 71.543C101.883 67.8633 100.805 63.7969 98.3323 60.3633C95.7542 56.7891 91.4417 54 85.9221 54C75.9143 54 69.7502 61.0195 69.7502 61.0195C69.2698 61.5586 69.0002 62.2734 69.0002 63V73.1719C68.6838 73.0664 68.3791 72.9375 68.051 72.8555C67.5002 72.3164 66.7737 72.0117 66.0002 72C65.2268 72.0117 64.5002 72.3164 63.9495 72.8555C63.6213 72.9375 63.3166 73.0664 63.0002 73.1719V63C63.0002 62.2734 62.7307 61.5586 62.2502 61.0195C62.2502 61.0195 56.0862 54 46.0784 54ZM46.0784 60C52.4416 60 56.0862 63.457 57.0002 64.3945V75H45.0354C45.0237 75 45.012 75 45.0002 75C44.9651 75 44.9416 75 44.9065 75C44.9065 75 42.1995 75.0586 39.6916 74.4727C38.426 74.1797 37.2893 73.6992 36.7034 73.2422C36.1057 72.7852 36.0002 72.6562 36.0002 72C36.0002 69.4336 36.8674 66.1992 38.5432 63.8555C40.219 61.5234 42.4456 60 46.0784 60ZM85.9221 60C89.5549 60 91.7815 61.5234 93.4573 63.8555C95.1331 66.1992 96.0003 69.4336 96.0003 72C96.0003 72.6562 95.8948 72.7852 95.2971 73.2422C94.7112 73.6992 93.5745 74.1797 92.3088 74.4727C89.801 75.0586 87.094 75 87.094 75C87.0588 75 87.0354 75 87.0002 75H75.0002V64.3945C75.9143 63.457 79.5588 60 85.9221 60ZM66.0002 78C67.6995 78 69.0002 79.3008 69.0002 81V84H63.0002V81C63.0002 79.3008 64.301 78 66.0002 78ZM61.5471 90H63.0002V105H60.0002V92.168L61.5471 90ZM69.0002 90H70.4534L72.0002 92.168V105H69.0002V90ZM54.0002 100.57V105H50.8362L54.0002 100.57ZM78.0002 100.57L81.1643 105H78.0002V100.57Z" fill="#00C896"/>
</svg>
